<svg version="1.1" id="logox-nimble_white" xmlns="http://www.w3.org/2000/svg" viewBox="0 0 192.7 40.6">
    <path fill="#FFFFFF" stroke="#FFFFFF" stroke-width="0.4322" stroke-linecap="round" stroke-linejoin="round" d="M68.6,18.6h0.1 c1.7-2.7,4.7-4.4,8.4-4.4c7.3,0,9.3,4,9.3,10.3v15.4h-2.8V24.5c0-4.4-0.6-8.1-6.8-8.1c-7.1,0-8.3,5.8-8.3,10.8v12.6h-2.8V14.7h2.8 V18.6z"/>
    <path fill="#FFFFFF" stroke="#FFFFFF" stroke-width="0.4322" stroke-linecap="round" stroke-linejoin="round" d="M93.7,39.9h-2.4 V14.8h2.4V39.9z"/>
    <path fill="#FFFFFF" stroke="#FFFFFF" stroke-width="0.4322" stroke-linecap="round" stroke-linejoin="round" d="M101.3,17.9h0.1 c1.1-2.3,3.6-3.7,6.3-3.7c3.2,0,5.7,1.6,7.1,4.6c1.4-3,4.1-4.6,7.3-4.6c6.5,0,7.8,4.4,7.8,9.9v15.7h-2.4V23.8c0-3.8-0.6-7.3-5.4-7.3 c-5.2,0-6.5,4.6-6.5,8.9v14.4h-2.4V24.4c0-3.9-0.7-7.9-5.6-7.9c-5.3,0-6.2,5.5-6.2,9.5v13.8h-2.4V14.8h2.4V17.9z"/>
    <path fill="#FFFFFF" stroke="#FFFFFF" stroke-width="0.4322" stroke-linecap="round" stroke-linejoin="round" d="M134.7,0.5h2.4 v18.8h0.1c2.1-3.1,5.8-4.9,9.7-4.9c7.5,0,12.3,5.6,12.3,12.9c0,7.3-4.8,13.2-12.4,13.2c-3.7,0-7.7-1.8-9.5-5h-0.1v4.5h-2.4V0.5z M156.7,27.2c0-5.5-4-10.6-9.8-10.6c-6.3,0-10,4.7-10,10.7c0,5.9,3.7,10.9,9.9,10.9C153,38.2,156.7,33,156.7,27.2z"/>
    <path fill="#FFFFFF" stroke="#FFFFFF" stroke-width="0.4322" stroke-linecap="round" stroke-linejoin="round" d="M164.8,39.9h-2.4 V0.4h2.4V39.9z"/>
    <path fill="#FFFFFF" stroke="#FFFFFF" stroke-width="0.4322" stroke-linecap="round" stroke-linejoin="round" d="M170.5,27.5 c-0.2,6.3,4.2,10.6,10,10.6c3.9,0,7.1-2.3,8.8-5.7l2.1,1.2c-2.3,4.3-6.3,6.8-11.2,6.8c-7.4,0-12.1-6-12.1-13.1c0-7,4.8-13,12.1-13 c7.6,0,12.1,6.1,12,13.3H170.5z M189.8,25.2c-0.6-4.6-4.4-8.7-9.5-8.7c-5.1,0-9.3,4-9.8,8.7H189.8z"/>
    <path fill="none" stroke="#FFFFFF" stroke-width="1.1638" stroke-linecap="round" stroke-linejoin="round" d="M13.5,11.4l-2.7-1.1 c0,0-1.5,1.1-2.2,2.8c-0.7,1.7-0.4,3.4-0.4,3.4l13,5.1l-9.6,13.6c0,0,0.8,1.8,2.3,2.8c1.5,1,3.2,1.1,3.2,1.1"/>
    <path fill="none" stroke="#FFFFFF" stroke-width="1.1638" stroke-linecap="round" stroke-linejoin="round" d="M23.5,8.6V2.1 c0,0,1.1-0.9,3.2-0.9c1,0,1.5,0.2,1.5,0.2"/>
    <path fill="none" stroke="#FFFFFF" stroke-width="1.1638" stroke-linecap="round" stroke-linejoin="round" d="M15.9,8V2.1 c0,0,1.1-0.9,3.2-0.9c1,0,1.5,0.2,1.5,0.2"/>
    <path fill="none" stroke="#FFFFFF" stroke-width="1.1638" stroke-linecap="round" stroke-linejoin="round" d="M5.8,11.3l-2.5-1 c0,0-1.5,1.1-2.2,2.8c-0.7,1.7-0.4,3.4-0.4,3.4l13,5.1L4,35.2c0,0,0.8,1.8,2.3,2.8c1.5,1,3.2,1.1,3.2,1.1"/>
    <path fill="none" stroke="#020202" stroke-width="1.5495" stroke-linecap="round" stroke-linejoin="round" d="M28.4,14.7"/>
    <path fill="none" stroke="#FFFFFF" stroke-width="2.4272" stroke-linecap="round" stroke-linejoin="round" d="M29.2,14.4l-10.4-4.1 c0,0-1.5,1.1-2.2,2.8c-0.7,1.7-0.4,3.4-0.4,3.4l13,5.1l-9.6,13.6c0,0,0.8,1.8,2.3,2.8c1.5,1,3.2,1.1,3.2,1.1l9.6-13.7l9.7,13.7 c0,0,1.9-0.2,3.2-1.1c1.3-1,2.2-2.8,2.2-2.8l-9.6-13.6l13.1-5.2c0,0,0.2-2.2-0.5-3.7c-0.6-1.4-2.1-2.6-2.1-2.6l-10.6,4.3"/>
    <path fill="none" stroke="#FFFFFF" stroke-width="2.4272" stroke-linecap="round" stroke-linejoin="round" d="M31.4,9.1V2.1 c0,0,1.1-0.9,3.2-0.9c2.1,0,3.5,1,3.5,1V9"/>
    <path fill="none" stroke="#FAA51A" stroke-width="1.1638" stroke-linecap="round" stroke-linejoin="round" d="M13.5,11.4l-2.7-1.1 c0,0-1.5,1.1-2.2,2.8c-0.7,1.7-0.4,3.4-0.4,3.4l13,5.1l-9.6,13.6c0,0,0.8,1.8,2.3,2.8c1.5,1,3.2,1.1,3.2,1.1"/>
    <path fill="none" stroke="#FAA51A" stroke-width="1.1638" stroke-linecap="round" stroke-linejoin="round" d="M23.5,8.6V2.1 c0,0,1.1-0.9,3.2-0.9c1,0,1.5,0.2,1.5,0.2"/>
    <path fill="none" stroke="#FAA51A" stroke-width="1.1638" stroke-linecap="round" stroke-linejoin="round" d="M15.9,8V2.1 c0,0,1.1-0.9,3.2-0.9c1,0,1.5,0.2,1.5,0.2"/>
    <path fill="none" stroke="#FAA51A" stroke-width="1.1638" stroke-linecap="round" stroke-linejoin="round" d="M5.8,11.3l-2.5-1 c0,0-1.5,1.1-2.2,2.8c-0.7,1.7-0.4,3.4-0.4,3.4l13,5.1L4,35.2c0,0,0.8,1.8,2.3,2.8c1.5,1,3.2,1.1,3.2,1.1"/>
    <path fill="none" stroke="#020202" stroke-width="1.5495" stroke-linecap="round" stroke-linejoin="round" d="M28.4,14.7"/>
</svg>